PathFileType	3	(X/Y/Z)	D:\Vicon Database\Healthy Subjects\S0040\Jan. 30, 2020\Force Plate Walk 10.trc
DataRate	CameraRate	NumFrames	NumMarkers	Units	OrigDataRate	OrigDataStartFrame	OrigNumFrames
100.0	100.0	6	53	mm	100.0	324	338	
Frame#	Time	right_foot_cluster2			right_foot_cluster3			sternum_cluster1			sternum_cluster2			sternum_cluster3			left_asis			right_asis			left_psis			right_psis			sacrum_cluster1			sacrum_cluster2			sacrum_cluster3			left_lat_femoral_epicondyle			left_anterior_thigh15			left_anterior_thigh25			left_anterior_thigh50			left_lateral_thigh25			left_lateral_thigh50			left_thigh_cluster1			left_thigh_cluster2			left_thigh_cluster3			left_fibular_head			left_tibial_tuberosity			left_anterior_shank30			left_lateral_malleolus			left_shank_cluster1			left_shank_cluster2			left_shank_cluster3			left_heel			left_metatarsal2			left_foot_cluster1			left_foot_cluster2			left_foot_cluster3			right_lat_femoral_epicondyle			right_anterior_thigh15			right_anterior_thigh25			right_anterior_thigh50			right_lateral_thigh25			right_lateral_thigh50			right_thigh_cluster1			right_thigh_cluster2			right_thigh_cluster3			right_fibular_head			right_tibial_tuberosity			right_lateral_distal_shank			right_anterior_shank30			right_lateral_malleolus			right_shank_cluster1			right_shank_cluster2			right_shank_cluster3			right_heel			right_metatarsal2			right_foot_cluster1			
		X1	Y1	Z1	X2	Y2	Z2	X3	Y3	Z3	X4	Y4	Z4	X5	Y5	Z5	X6	Y6	Z6	X7	Y7	Z7	X8	Y8	Z8	X9	Y9	Z9	X10	Y10	Z10	X11	Y11	Z11	X12	Y12	Z12	X13	Y13	Z13	X14	Y14	Z14	X15	Y15	Z15	X16	Y16	Z16	X17	Y17	Z17	X18	Y18	Z18	X19	Y19	Z19	X20	Y20	Z20	X21	Y21	Z21	X22	Y22	Z22	X23	Y23	Z23	X24	Y24	Z24	X25	Y25	Z25	X26	Y26	Z26	X27	Y27	Z27	X28	Y28	Z28	X29	Y29	Z29	X30	Y30	Z30	X31	Y31	Z31	X32	Y32	Z32	X33	Y33	Z33	X34	Y34	Z34	X35	Y35	Z35	X36	Y36	Z36	X37	Y37	Z37	X38	Y38	Z38	X39	Y39	Z39	X40	Y40	Z40	X41	Y41	Z41	X42	Y42	Z42	X43	Y43	Z43	X44	Y44	Z44	X45	Y45	Z45	X46	Y46	Z46	X47	Y47	Z47	X48	Y48	Z48	X49	Y49	Z49	X50	Y50	Z50	X51	Y51	Z51	X52	Y52	Z52	X53	Y53	Z53	
324	3.23	2211.699	103.05841	-244.67039	2212.8862	106.37852	-281.73752	1999.4541	1446.6084	-211.21025	1988.3582	1418.5879	-202.64023	1987.7844	1421.9507	-240.67477	2021.9004	1068.8951	-95.850204	2020.0718	1069.158	-343.58997	2186.3218	1085.8503	-139.07634	2186.9934	1091.394	-256.76529	2194.1606	1145.8417	-204.14735	2200.6531	1121.1229	-216.26897	2204.0967	1115.2418	-177.37895	1923.3376	562.56042	-71.830917	1861.075	665.24243	-116.83942	1880.2434	751.05542	-104.81718	1936.6124	875.57538	-93.222061	1979.78	704.18365	-45.795414	2027.8525	845.80591	-19.510321	2013.9613	800.63452	-13.982231	2006.4822	771.55682	-16.816227	1974.949	791.94324	-12.012444	1895.7534	489.07578	-65.621468	1841.4022	491.99432	-120.83198	1806.3295	243.17413	-128.54294	1822.05	115.8376	-97.976494	1829.2161	439.59885	-147.96927	1817.7751	414.20465	-139.41405	1833.3237	410.09253	-175.22356	1883.9919	61.162868	-137.38519	1675.1464	127.49873	-135.06252	1744.6746	155.96619	-125.31793	1717.1881	145.6506	-116.53976	1715.1857	154.95117	-153.54291	2208.7705	543.69861	-333.73227	2100.9392	605.73059	-280.87338	2055.8452	678.77686	-283.85883	2014.0867	805.16327	-304.08621	2156.6431	695.09271	-364.12839	2115.8071	834.78296	-398.4183	2137.5684	785.91107	-401.07333	2132.7871	758.02557	-395.28677	2171.1299	766.29944	-391.51974	2237.7827	480.57126	-332.11795	2183.1907	460.26944	-291.34888	2302.9482	217.61719	-307.81094	2251.832	222.48137	-266.53223	2323.6941	114.10996	-289.11816	2201.6929	400.24649	-233.32228	2212.3684	374.2674	-225.07695	2192.2654	367.49539	-255.53807	2402.2175	86.605988	-252.6604	2183.8484	65.936798	-256.53903	2235.1313	118.78291	-252.6842
325	3.24	2210.5137	103.15557	-244.32361	2211.8191	106.35323	-281.54572	1985.2504	1443.6973	-211.30226	1974.1912	1415.6238	-202.58292	1973.4608	1419.0062	-240.64987	2007.4946	1066.2679	-95.661293	2006.6516	1065.771	-343.86154	2172.063	1083.1421	-138.81718	2172.925	1088.7627	-256.71902	2179.5806	1143.0845	-203.76839	2186.3235	1118.3423	-216.12386	2189.7927	1112.4558	-177.13121	1909.151	559.52423	-72.099525	1849.5505	661.0061	-118.29695	1868.0579	746.3208	-106.09527	1922.3109	871.39642	-93.481293	1967.2184	700.23413	-45.075039	2013.8185	842.73022	-18.868805	2000.5114	797.41516	-13.350224	1993.741	768.79944	-15.813546	1961.8779	788.76556	-11.110686	1878.3502	487.3219	-66.118881	1824.5079	492.28073	-122.26472	1778.2759	245.73767	-128.96284	1787.2904	117.76109	-98.058762	1810.2656	440.79028	-149.20082	1797.8949	415.7374	-140.64772	1813.4941	410.9671	-176.40091	1846.8574	59.529961	-136.16441	1641.7369	136.75737	-136.91089	1712.6345	161.65419	-126.65849	1684.4639	153.12965	-117.98351	1683.3138	162.14552	-155.10597	2201.7144	543.63031	-332.92722	2092.6165	603.80847	-280.32574	2046.2043	676.28125	-283.41269	2002.3851	802.03845	-304.02161	2147.1582	694.07513	-363.48257	2104.2346	833.00635	-398.1778	2127.1094	784.89893	-400.64557	2122.8384	756.54303	-394.79968	2160.5032	765.62122	-390.64264	2231.7427	480.96967	-331.46841	2177.2515	459.90515	-290.86237	2300.2373	218.84793	-307.13492	2249.1494	223.0584	-265.90518	2322.4243	115.43732	-288.67627	2196.2781	400.06732	-233.17163	2207.6658	374.32681	-224.28227	2187.6038	367.40207	-255.06058	2401.3882	88.923859	-252.05046	2183.2466	65.825531	-256.30646	2233.9556	119.21118	-252.30786
326	3.25	2209.3064	103.03972	-244.18971	2210.4763	106.27768	-281.36789	1970.9515	1440.6705	-211.33578	1959.7617	1412.6827	-202.47905	1959.1576	1416.0345	-240.61533	1992.985	1063.4882	-95.287483	1992.2141	1062.7523	-343.81003	2157.6687	1080.3771	-138.47865	2158.5481	1086.071	-256.43732	2165.2532	1140.3279	-203.35359	2171.8127	1115.5961	-215.83122	2175.323	1109.696	-176.8168	1894.8837	556.31769	-72.418877	1837.3162	657.1181	-119.6427	1855.7124	741.70947	-107.32477	1907.925	867.26373	-93.550934	1953.926	696.48456	-44.741085	1999.4236	839.62396	-18.500999	1986.4653	793.87262	-12.531487	1979.5709	764.97894	-14.942138	1947.6333	785.03845	-10.37324	1861.4231	485.6586	-66.552177	1808.0967	492.2583	-123.48904	1751.8271	248.37088	-129.52325	1755.1571	120.15739	-98.467018	1792.1598	441.80957	-150.42261	1778.7104	417.18103	-141.66592	1794.2581	411.73117	-177.13371	1811.6765	58.591091	-136.01822	1611.1085	145.85468	-138.65268	1682.8617	167.59856	-127.99618	1654.3563	160.26645	-119.56089	1654.0616	169.0249	-156.86427	2193.4812	543.25775	-332.42343	2083.6458	601.6272	-279.43402	2035.6433	673.84344	-282.8956	1990.1797	799.11633	-303.90079	2136.6919	692.86951	-363.13055	2092.4883	831.65094	-398.14142	2115.7954	783.4751	-400.24448	2111.5029	755.04041	-393.66473	2149.2649	764.48828	-390.07843	2224.6602	481.23053	-330.7229	2171.5679	459.06534	-289.03601	2297.2366	220.12733	-306.6618	2245.9998	223.46376	-265.44272	2320.9177	117.29434	-288.28827	2190.9719	399.76666	-231.89746	2202.4856	373.99216	-224.02029	2182.4502	366.83685	-253.97092	2400.2915	91.484573	-251.72899	2182.3867	65.580559	-256.31848	2232.3965	119.52039	-252.34866
327	3.26	2207.9761	102.95204	-244.09778	2209.0894	106.22298	-281.25055	1956.566	1437.7338	-211.06517	1945.4203	1409.7621	-202.35141	1944.6427	1413.0084	-240.47104	1978.3743	1060.6576	-94.913864	1977.4591	1059.9038	-343.63461	2143.0996	1077.6387	-137.92607	2143.9426	1083.463	-256.03354	2150.7927	1137.6896	-202.84688	2157.2703	1112.9061	-215.31084	2160.7173	1106.9651	-176.38573	1880.2606	553.20447	-72.68084	1824.3647	653.85364	-121.01493	1842.5449	737.7475	-108.37577	1893.2469	863.70618	-93.410378	1939.634	693.0354	-44.756657	1984.5889	836.49677	-17.652269	1971.5762	790.43634	-11.547851	1965.0398	761.56097	-14.399267	1932.8713	781.38611	-9.819356	1844.8209	483.92172	-67.009323	1791.8275	492.48254	-124.46879	1727.4126	250.63103	-130.32803	1725.9722	122.42468	-99.354012	1774.5854	442.50775	-151.08421	1760.3071	418.27496	-142.5843	1775.8099	412.40186	-177.80005	1779.2491	57.639168	-136.47049	1583.2511	154.02945	-140.24724	1655.9531	172.65137	-129.66794	1627.2195	166.68161	-121.18578	1627.4664	174.87857	-158.57085	2184.3364	542.74084	-331.92166	2073.2971	599.59521	-278.92102	2024.1874	671.38544	-282.5495	1977.6096	796.14893	-303.68896	2125.2615	691.43109	-362.8765	2079.8821	829.69513	-397.3522	2103.9841	781.84973	-399.68668	2099.8501	753.453	-393.68454	2137.3569	763.24573	-389.29187	2216.7988	481.37335	-330.01389	2163.7241	458.29053	-288.66867	2293.7827	221.47058	-306.21405	2242.3787	223.82231	-265.12827	2319.6489	119.15434	-287.87054	2184.4868	399.26025	-231.07077	2196.2539	373.8349	-223.12674	2176.262	366.22296	-253.6132	2398.854	94.296837	-251.62569	2181.7083	65.17691	-256.29507	2230.4856	119.90755	-252.13742
328	3.27	2206.2544	103.06049	-244.11151	2207.4233	105.84745	-280.87375	1942.087	1434.8164	-211.02571	1930.8517	1406.908	-202.14709	1930.1326	1410.1409	-240.22298	1963.674	1057.7922	-94.452744	1962.6252	1057.1884	-343.35382	2128.5496	1075.0018	-137.31046	2129.3193	1080.9038	-255.51349	2136.5374	1135.2679	-202.22908	2142.6074	1110.2642	-214.69939	2146.064	1104.3613	-175.72768	1865.541	550.51276	-72.951096	1810.5604	651.50714	-122.64398	1827.8002	735.03009	-109.19372	1878.2299	861.01099	-93.084023	1924.5149	690.06055	-45.195633	1969.1302	833.59827	-17.010447	1956.1945	787.1427	-11.218302	1949.5284	758.32794	-14.394503	1917.7379	778.34906	-9.4818783	1828.4437	482.2135	-67.278786	1775.814	492.17648	-125.08594	1704.9362	252.23232	-131.34261	1699.8578	124.09927	-100.6772	1757.3561	442.85678	-151.74736	1742.4313	418.94736	-143.29512	1757.7334	412.76468	-178.50327	1750.5079	57.09404	-138.06422	1558.3164	160.71535	-141.45181	1631.6952	176.6241	-131.27518	1602.8003	171.68384	-122.64745	1603.2426	180.03619	-160.10698	2174.3833	542.3493	-331.35538	2062.0862	597.57416	-278.73206	2012.1312	668.85712	-282.40796	1964.4371	793.47607	-303.45978	2113.3506	690.13129	-362.49335	2067.0454	828.20947	-397.5087	2091.1511	780.31311	-399.35446	2087.4409	751.85449	-393.19659	2124.8655	762.0246	-388.77591	2207.8669	481.47656	-329.66922	2155.6018	457.18478	-288.01324	2289.9966	223.14215	-305.92169	2238.3347	224.21434	-265.05283	2317.8103	121.12342	-287.79764	2176.9143	398.37231	-230.99895	2189.4609	373.45956	-222.81845	2169.627	365.53024	-253.22017	2397.2954	97.674599	-251.36513	2180.7712	64.736069	-256.03763	2228.8501	120.10219	-252.17166
329	3.28	2204.4634	102.82755	-244.23729	2205.5789	106.00351	-281.16608	1927.4303	1432.1951	-210.8752	1916.2969	1404.2267	-201.95911	1915.4694	1407.3807	-239.95712	1948.8282	1055.1382	-93.953697	1947.8439	1054.5345	-343.15585	2113.7888	1072.4722	-136.60023	2114.4573	1078.3966	-254.86058	2121.7983	1132.6951	-201.49944	2127.8889	1107.8295	-214.00957	2131.3438	1101.7864	-175.02501	1850.1947	548.36133	-73.070824	1795.6205	650.03497	-124.52306	1811.7693	733.70801	-109.84582	1862.5293	859.57764	-92.621605	1909.2357	687.85864	-45.747822	1953.2161	831.16022	-16.649813	1940.5968	784.76276	-11.576829	1933.8076	755.87457	-14.875751	1901.8661	775.62781	-10.123145	1812.1837	480.33572	-67.563271	1759.8237	491.51691	-125.41808	1684.2061	253.05579	-132.63799	1676.8356	124.84049	-102.61295	1740.5865	442.5166	-152.17436	1725.0637	418.95972	-143.84131	1740.4989	412.59192	-178.92314	1725.451	56.648018	-140.80215	1536.0737	165.33316	-142.27843	1609.9879	179.23071	-132.37962	1581.0132	175.12032	-123.64745	1581.5006	183.51344	-161.14688	2163.1621	541.54425	-331.50867	2050.0557	595.55072	-278.99173	1999.3301	666.51361	-282.47232	1950.6953	791.07654	-303.36395	2100.9175	688.58234	-362.3006	2053.6094	826.5769	-396.99475	2077.9348	778.82477	-398.93814	2074.3535	750.27777	-392.68262	2111.917	760.59674	-388.29495	2198.0269	481.44571	-329.52155	2146.2539	456.12057	-287.82184	2285.6479	224.93967	-305.8671	2234.0627	224.99315	-264.47318	2315.6138	123.45513	-287.83313	2169.439	397.96912	-230.71265	2182.2019	372.95596	-222.15935	2162.1697	364.58472	-252.90251	2395.5803	101.46056	-251.32448	2179.5938	64.248772	-255.92723	2226.4814	120.61705	-252.29433
